HIERARCHY
ROOT root
{
  OFFSET 0 95.9893 0
  CHANNELS 6 Xposition Yposition Zposition Zrotation Xrotation Yrotation
  JOINT torso_1
  {
    OFFSET 0 5.22546 -1.18466
    CHANNELS 6 Xposition Yposition Zposition Zrotation Xrotation Yrotation
    JOINT torso_2
    {
      OFFSET 0 5.77894 1.10239
      CHANNELS 6 Xposition Yposition Zposition Zrotation Xrotation Yrotation
      JOINT torso_3
      {
        OFFSET -1.0557e-17 6.16289 0.118334
        CHANNELS 6 Xposition Yposition Zposition Zrotation Xrotation Yrotation
        JOINT torso_4
        {
          OFFSET -1.13649e-17 6.69386 -0.456341
          CHANNELS 6 Xposition Yposition Zposition Zrotation Xrotation Yrotation
          JOINT torso_5
          {
            OFFSET -2.02997e-17 7.82529 -1.54945
            CHANNELS 6 Xposition Yposition Zposition Zrotation Xrotation Yrotation
            JOINT torso_6
            {
              OFFSET -2.60628e-17 9.77186 -0.940923
              CHANNELS 6 Xposition Yposition Zposition Zrotation Xrotation Yrotation
              JOINT torso_7
              {
                OFFSET -2.98794e-17 10.8563 1.62248
                CHANNELS 6 Xposition Yposition Zposition Zrotation Xrotation Yrotation
                JOINT neck_1
                {
                  OFFSET -1.32927e-17 4.92478 0.736013
                  CHANNELS 6 Xposition Yposition Zposition Zrotation Xrotation Yrotation
                  JOINT neck_2
                  {
                    OFFSET -1.86396e-17 4.96043 0.433981
                    CHANNELS 6 Xposition Yposition Zposition Zrotation Xrotation Yrotation
                    JOINT head
                    {
                      OFFSET -2.06766e-17 4.97002 0.787173
                      CHANNELS 6 Xposition Yposition Zposition Zrotation Xrotation Yrotation
                      End Site
                      {
                        OFFSET 0 0.1 0
                      }
                    }
                  }
                }
                JOINT l_shoulder
                {
                  OFFSET 1.26863 -7.82717 7.75148
                  CHANNELS 6 Xposition Yposition Zposition Zrotation Xrotation Yrotation
                  JOINT l_up_arm
                  {
                    OFFSET 13.3291 3.34342 -3.36319
                    CHANNELS 6 Xposition Yposition Zposition Zrotation Xrotation Yrotation
                    JOINT l_low_arm
                    {
                      OFFSET 30.0522 0.0615366 0.141
                      CHANNELS 6 Xposition Yposition Zposition Zrotation Xrotation Yrotation
                      JOINT l_hand
                      {
                        OFFSET 24.9344 0.0510561 0.116988
                        CHANNELS 6 Xposition Yposition Zposition Zrotation Xrotation Yrotation
                        End Site
                        {
                          OFFSET 0.1 0 0
                        }
                      }
                    }
                  }
                }
                JOINT r_shoulder
                {
                  OFFSET -1.26863 -7.82715 7.75138
                  CHANNELS 6 Xposition Yposition Zposition Zrotation Xrotation Yrotation
                  JOINT r_up_arm
                  {
                    OFFSET -13.3291 3.34342 -3.36319
                    CHANNELS 6 Xposition Yposition Zposition Zrotation Xrotation Yrotation
                    JOINT r_low_arm
                    {
                      OFFSET -30.0522 0.0615366 0.141
                      CHANNELS 6 Xposition Yposition Zposition Zrotation Xrotation Yrotation
                      JOINT r_hand
                      {
                        OFFSET -24.9344 0.0510559 0.116988
                        CHANNELS 6 Xposition Yposition Zposition Zrotation Xrotation Yrotation
                        End Site
                        {
                          OFFSET -0.1 0 0
                        }
                      }
                    }
                  }
                }
              }
            }
          }
        }
      }
    }
  }
  JOINT l_up_leg
  {
    OFFSET 9.50369 -4.32711 2.09145
    CHANNELS 6 Xposition Yposition Zposition Zrotation Xrotation Yrotation
    JOINT l_low_leg
    {
      OFFSET -0.876987 -39.8926 -0.674123
      CHANNELS 6 Xposition Yposition Zposition Zrotation Xrotation Yrotation
      JOINT l_foot
      {
        OFFSET -2.39345 -41.5694 -6.22357
        CHANNELS 6 Xposition Yposition Zposition Zrotation Xrotation Yrotation
        JOINT l_toes
        {
          OFFSET 0.801613 -10.1701 12.8571
          CHANNELS 6 Xposition Yposition Zposition Zrotation Xrotation Yrotation
          End Site
          {
            OFFSET 0 0 0.1
          }
        }
      }
    }
  }
  JOINT r_up_leg
  {
    OFFSET -9.50369 -4.32711 2.09145
    CHANNELS 6 Xposition Yposition Zposition Zrotation Xrotation Yrotation
    JOINT r_low_leg
    {
      OFFSET 0.876987 -39.8926 -0.674123
      CHANNELS 6 Xposition Yposition Zposition Zrotation Xrotation Yrotation
      JOINT r_foot
      {
        OFFSET 2.39345 -41.5694 -6.22357
        CHANNELS 6 Xposition Yposition Zposition Zrotation Xrotation Yrotation
        JOINT r_toes
        {
          OFFSET -0.801613 -10.1701 12.8571
          CHANNELS 6 Xposition Yposition Zposition Zrotation Xrotation Yrotation
          End Site
          {
            OFFSET 0 0 0.1
          }
        }
      }
    }
  }
}
MOTION
Frames: 4
Frame Time: 0.020000
-21.9138 93.2186 250.356 -0.867291 -0.132145 -44.9123 0 5.22546 -1.18466 0.116369 2.49808 -0.638843 0 5.77894 1.10239 0.388759 2.54617 -0.629947 -1.0557e-17 6.16289 0.118334 0.334774 3.10377 -0.565866 -1.13649e-17 6.69386 -0.456341 0.310208 3.59318 -0.499912 -2.02997e-17 7.82529 -1.54945 0.0898532 3.44625 -0.570443 -2.60628e-17 9.77186 -0.940923 -0.122722 3.48152 -0.76924 -2.98794e-17 10.8563 1.62248 -0.195701 0.638687 0.0136153 -1.32927e-17 4.92478 0.736013 0.0175248 8.27464 4.18851 -1.86396e-17 4.96043 0.433981 -0.898612 -3.6495 1.67276 -2.06766e-17 4.97002 0.787173 -3.03694 -4.07766 0.368407 1.26863 -7.82717 7.75148 0.898773 0.140751 0.398979 13.3291 3.34342 -3.36319 -83.4454 2.2895 -10.5603 30.0522 0.0615366 0.141 2.46246 -0.244879 -11.9478 24.9344 0.0510561 0.116988 5.9732 -1.15417 -3.18963 -1.26863 -7.82715 7.75138 6.85628e-05 1.68466 -0.65875 -13.3291 3.34342 -3.36319 83.8356 8.04509 -3.15812 -30.0522 0.0615366 0.141 -2.86674 -0.335469 13.9419 -24.9344 0.0510559 0.116988 0.747088 -22.4759 6.29604 9.50369 -4.32711 2.09145 -6.28988 10.9025 -37.7772 -0.876987 -39.8926 -0.674123 -1.38861 5.1833 -0.0276741 -2.39345 -41.5694 -6.22357 4.80008 -5.25151 14.937 0.801613 -10.1701 12.8571 1.70356e-15 -5.99282e-16 -2.60153e-16 -9.50369 -4.32711 2.09145 -8.41386 -13.6594 29.4198 0.876987 -39.8926 -0.674123 2.75851 10.2436 -0.0679867 2.39345 -41.5694 -6.22357 6.81272 -2.97738 -15.4338 -0.801613 -10.1701 12.8571 -2.02555e-16 -4.03061e-16 -1.25919e-14 
-22.612 93.4408 249.909 -0.222698 -0.0351657 -41.9827 0 5.22546 -1.18466 0.232474 2.24813 -0.541438 0 5.77894 1.10239 0.434406 2.32054 -0.53352 -1.0557e-17 6.16289 0.118334 0.356104 2.96183 -0.470101 -1.13649e-17 6.69386 -0.456341 0.306797 3.59495 -0.412237 -2.02997e-17 7.82529 -1.54945 0.100665 3.51048 -0.487924 -2.60628e-17 9.77186 -0.940923 -0.105399 3.62529 -0.684739 -2.98794e-17 10.8563 1.62248 -0.198114 0.574786 0.00436771 -1.32927e-17 4.92478 0.736013 0.0162509 8.73809 3.21624 -1.86396e-17 4.96043 0.433981 -0.800976 -3.43543 1.25939 -2.06766e-17 4.97002 0.787173 -3.3177 -4.31636 0.703934 1.26863 -7.82717 7.75148 -0.122869 -0.0595057 0.449243 13.3291 3.34342 -3.36319 -82.4907 -1.3122 -9.39663 30.0522 0.0615366 0.141 2.33502 -0.219327 -11.3217 24.9344 0.0510561 0.116988 4.95995 -4.8855 -3.35462 -1.26863 -7.82715 7.75138 -0.282054 1.44278 -1.21634 -13.3291 3.34342 -3.36319 83.9101 6.05943 -2.99386 -30.0522 0.0615366 0.141 -2.9063 -0.34515 14.1379 -24.9344 0.0510559 0.116988 0.510907 -20.8026 6.02353 9.50369 -4.32711 2.09145 -6.04052 9.81846 -33.9979 -0.876987 -39.8926 -0.674123 -1.75407 6.54188 -0.0140554 -2.39345 -41.5694 -6.22357 4.18911 -5.06492 14.9927 0.801613 -10.1701 12.8571 -6.74048e-16 -7.02006e-16 -1.61086e-16 -9.50369 -4.32711 2.09145 -9.09406 -12.8757 26.6594 0.876987 -39.8926 -0.674123 2.66607 9.90543 -0.0577195 2.39345 -41.5694 -6.22357 6.25503 -3.52142 -15.4657 -0.801613 -10.1701 12.8571 -9.95959e-16 -3.68782e-16 -1.25671e-14 
-23.2249 93.5866 249.4 0.31949 0.0941381 -38.9278 0 5.22546 -1.18466 0.324415 2.15252 -0.468934 0 5.77894 1.10239 0.479733 2.19649 -0.455474 -1.0557e-17 6.16289 0.118334 0.389445 2.84291 -0.388477 -1.13649e-17 6.69386 -0.456341 0.328983 3.48922 -0.337055 -2.02997e-17 7.82529 -1.54945 0.146692 3.41114 -0.419766 -2.60628e-17 9.77186 -0.940923 -0.0392334 3.54604 -0.630433 -2.98794e-17 10.8563 1.62248 -0.185296 0.551455 0.00308963 -1.32927e-17 4.92478 0.736013 0.108245 9.17666 2.28928 -1.86396e-17 4.96043 0.433981 -0.7052 -3.23462 0.861742 -2.06766e-17 4.97002 0.787173 -3.75471 -4.41463 0.899493 1.26863 -7.82717 7.75148 -0.618916 -0.0579033 0.660852 13.3291 3.34342 -3.36319 -81.3237 -1.74673 -7.90137 30.0522 0.0615366 0.141 2.28525 -0.209741 -11.0776 24.9344 0.0510561 0.116988 3.31455 -11.4046 -3.66064 -1.26863 -7.82715 7.75138 -0.52747 1.36651 -1.62442 -13.3291 3.34342 -3.36319 83.7615 4.24615 -2.86954 -30.0522 0.0615366 0.141 -2.93182 -0.35147 14.2645 -24.9344 0.0510559 0.116988 0.187361 -19.2831 5.61343 9.50369 -4.32711 2.09145 -5.70175 8.67025 -30.7843 -0.876987 -39.8926 -0.674123 -2.1318 7.94042 0.00914738 -2.39345 -41.5694 -6.22357 4.00502 -5.05732 15.0347 0.801613 -10.1701 12.8571 1.14152e-16 -6.67952e-16 -1.9806e-16 -9.50369 -4.32711 2.09145 -9.67574 -12.0591 24.1154 0.876987 -39.8926 -0.674123 2.63266 9.78307 -0.0541436 2.39345 -41.5694 -6.22357 5.68419 -4.2199 -15.4862 -0.801613 -10.1701 12.8571 -2.04289e-16 -4.02986e-16 -1.25918e-14 
-23.7327 93.7256 248.814 0.664882 0.122267 -35.7424 0 5.22546 -1.18466 0.347115 2.28152 -0.414843 0 5.77894 1.10239 0.483976 2.23097 -0.399512 -1.0557e-17 6.16289 0.118334 0.401418 2.79893 -0.327702 -1.13649e-17 6.69386 -0.456341 0.348466 3.31856 -0.281346 -2.02997e-17 7.82529 -1.54945 0.202967 3.16974 -0.370493 -2.60628e-17 9.77186 -0.940923 0.0512931 3.26901 -0.603694 -2.98794e-17 10.8563 1.62248 -0.1646 0.564005 0.00750518 -1.32927e-17 4.92478 0.736013 0.258688 9.45245 1.34998 -1.86396e-17 4.96043 0.433981 -0.570522 -3.13941 0.456974 -2.06766e-17 4.97002 0.787173 -4.20932 -4.40862 1.16301 1.26863 -7.82717 7.75148 -0.782344 0.120538 0.876995 13.3291 3.34342 -3.36319 -80.2247 -0.220071 -6.42812 30.0522 0.0615366 0.141 2.29246 -0.211116 -11.1129 24.9344 0.0510561 0.116988 1.70533 -18.4315 -4.09166 -1.26863 -7.82715 7.75138 -0.736813 1.43119 -1.86702 -13.3291 3.34342 -3.36319 83.6109 2.71619 -2.75333 -30.0522 0.0615366 0.141 -2.9428 -0.354209 14.319 -24.9344 0.0510559 0.116988 -0.190236 -17.8887 5.13517 9.50369 -4.32711 2.09145 -5.17452 7.71107 -28.0369 -0.876987 -39.8926 -0.674123 -2.43296 9.0502 0.0342657 -2.39345 -41.5694 -6.22357 4.42033 -6.22506 15.167 0.801613 -10.1701 12.8571 5.12588e-16 -6.50738e-16 -2.10538e-16 -9.50369 -4.32711 2.09145 -10.109 -11.0729 21.6729 0.876987 -39.8926 -0.674123 2.64336 9.82227 -0.0552811 2.39345 -41.5694 -6.22357 5.01888 -4.76511 -15.5173 -0.801613 -10.1701 12.8571 -5.99257e-16 -3.85921e-16 -1.25795e-14 
